<svg xmlns="http://www.w3.org/2000/svg" width="550" height="350" viewBox="0 0 550 350">
  <rect width="550" height="350" fill="#f9f9f9"/>
  <text x="275" y="30" font-size="20" font-weight="bold" text-anchor="middle">Polymorphism - Many Forms</text>
  
  <!-- Base class -->
  <rect x="200" y="60" width="150" height="70" fill="#e1f5fe" stroke="#0277bd" stroke-width="2" rx="5"/>
  <text x="275" y="85" font-size="16" font-weight="bold" text-anchor="middle">Animal</text>
  <text x="210" y="105" font-size="12" fill="#333">+ make_sound()</text>
  <text x="210" y="120" font-size="11" fill="#666">(abstract)</text>
  
  <!-- Inheritance arrows -->
  <line x1="220" y1="130" x2="150" y2="200" stroke="#333" stroke-width="2" marker-end="url(#arrow1)"/>
  <line x1="250" y1="130" x2="275" y2="200" stroke="#333" stroke-width="2" marker-end="url(#arrow1)"/>
  <line x1="280" y1="130" x2="400" y2="200" stroke="#333" stroke-width="2" marker-end="url(#arrow1)"/>
  
  <defs>
    <marker id="arrow1" markerWidth="10" markerHeight="10" refX="9" refY="3" orient="auto">
      <polygon points="0 0, 10 3, 0 6" fill="#333"/>
    </marker>
  </defs>
  
  <!-- Child classes -->
  <rect x="50" y="200" width="100" height="100" fill="#f3e5f5" stroke="#7b1fa2" stroke-width="2" rx="5"/>
  <text x="100" y="225" font-size="14" font-weight="bold" text-anchor="middle">Dog</text>
  <text x="60" y="250" font-size="12" fill="#333">make_sound()</text>
  <text x="60" y="270" font-size="11" fill="#666">→ "Woof!"</text>
  <text x="60" y="285" font-size="10" fill="#999">Override</text>
  
  <rect x="200" y="200" width="150" height="100" fill="#fff3e0" stroke="#e65100" stroke-width="2" rx="5"/>
  <text x="275" y="225" font-size="14" font-weight="bold" text-anchor="middle">Cat</text>
  <text x="210" y="250" font-size="12" fill="#333">make_sound()</text>
  <text x="210" y="270" font-size="11" fill="#666">→ "Meow!"</text>
  <text x="210" y="285" font-size="10" fill="#999">Override</text>
  
  <rect x="400" y="200" width="100" height="100" fill="#e8f5e9" stroke="#2e7d32" stroke-width="2" rx="5"/>
  <text x="450" y="225" font-size="14" font-weight="bold" text-anchor="middle">Duck</text>
  <text x="410" y="250" font-size="12" fill="#333">make_sound()</text>
  <text x="410" y="270" font-size="11" fill="#666">→ "Quack!"</text>
  <text x="410" y="285" font-size="10" fill="#999">Override</text>
  
  <!-- Polymorphic function -->
  <rect x="150" y="320" width="250" height="25" fill="#fff9c4" stroke="#f57f17" stroke-width="2" rx="5"/>
  <text x="275" y="337" font-size="12" text-anchor="middle" fill="#333">animal_sound(animal) - works with any Animal type</text>
</svg>

